<svg width="35" height="35" viewBox="0 0 35 35" fill="none" xmlns="http://www.w3.org/2000/svg">
<path d="M13.125 27.7083C6.85417 29.7499 6.85417 24.0624 4.375 23.3333M21.875 30.6249V25.5208C21.875 24.0624 22.0208 23.4791 21.1458 22.6041C25.2292 22.1666 29.1667 20.5624 29.1667 13.8541C29.1649 12.1113 28.485 10.4377 27.2708 9.18743C27.8403 7.67363 27.7878 5.99605 27.125 4.52076C27.125 4.52076 25.5208 4.08326 22.0208 6.4166C19.0564 5.64454 15.9436 5.64454 12.9792 6.4166C9.47917 4.08326 7.875 4.52076 7.875 4.52076C7.21216 5.99605 7.15974 7.67363 7.72917 9.18743C6.51504 10.4377 5.83511 12.1113 5.83333 13.8541C5.83333 20.5624 9.77083 22.1666 13.8542 22.6041C12.9792 23.4791 12.9792 24.3541 13.125 25.5208V30.6249" stroke="#DC944C" stroke-width="2" stroke-linecap="round" stroke-linejoin="round"/>
</svg>
