<svg width="75" height="75" viewBox="0 0 75 75" fill="none" xmlns="http://www.w3.org/2000/svg">
<path d="M37.5 28.125H15.625C13.9674 28.125 12.3777 28.7835 11.2056 29.9556C10.0335 31.1277 9.375 32.7174 9.375 34.375V46.875C9.375 48.5326 10.0335 50.1223 11.2056 51.2944C12.3777 52.4665 13.9674 53.125 15.625 53.125H25M37.5 46.875H59.375C61.0326 46.875 62.6223 46.2165 63.7944 45.0444C64.9665 43.8723 65.625 42.2826 65.625 40.625V28.125C65.625 26.4674 64.9665 24.8777 63.7944 23.7056C62.6223 22.5335 61.0326 21.875 59.375 21.875H50M25 28.125V15.625C25 13.9674 25.6585 12.3777 26.8306 11.2056C28.0027 10.0335 29.5924 9.375 31.25 9.375H43.75C45.4076 9.375 46.9973 10.0335 48.1694 11.2056C49.3415 12.3777 50 13.9674 50 15.625V31.25C50 32.9076 49.3415 34.4973 48.1694 35.6694C46.9973 36.8415 45.4076 37.5 43.75 37.5H31.25C29.5924 37.5 28.0027 38.1585 26.8306 39.3306C25.6585 40.5027 25 42.0924 25 43.75V59.375C25 61.0326 25.6585 62.6223 26.8306 63.7944C28.0027 64.9665 29.5924 65.625 31.25 65.625H43.75C45.4076 65.625 46.9973 64.9665 48.1694 63.7944C49.3415 62.6223 50 61.0326 50 59.375V46.875M34.375 18.75V18.7813M40.625 56.25V56.2813" stroke="#DC944C" stroke-width="2" stroke-linecap="round" stroke-linejoin="round"/>
</svg>
