<svg width="75" height="75" viewBox="0 0 75 75" fill="none" xmlns="http://www.w3.org/2000/svg">
<path d="M23.4375 25H32.8125V50L26.5625 46.875M51.5625 25H43.75C43.3356 25 42.9382 25.1646 42.6451 25.4576C42.3521 25.7507 42.1875 26.1481 42.1875 26.5625V35.9375C42.1875 36.3519 42.3521 36.7493 42.6451 37.0424C42.9382 37.3354 43.3356 37.5 43.75 37.5H48.1969C48.4205 37.5 48.6416 37.5481 48.8451 37.6409C49.0485 37.7337 49.2297 37.8691 49.3764 38.038C49.523 38.2069 49.6317 38.4052 49.6951 38.6197C49.7585 38.8342 49.7751 39.0598 49.7438 39.2812L48.4375 48.4375L42.1875 50M62.5 12.5L56.25 57.8125L37.5 64.0625L18.75 57.8125L12.5 12.5H62.5Z" stroke="#DC944C" stroke-width="2" stroke-linecap="round" stroke-linejoin="round"/>
</svg>
