<svg width="75" height="75" viewBox="0 0 75 75" fill="none" xmlns="http://www.w3.org/2000/svg">
<path d="M28.125 59.375V40.625C28.125 38.8991 26.7259 37.5 25 37.5H12.5C10.7741 37.5 9.375 38.8991 9.375 40.625V59.375C9.375 61.1009 10.7741 62.5 12.5 62.5M28.125 59.375C28.125 61.1009 26.7259 62.5 25 62.5H12.5M28.125 59.375C28.125 61.1009 29.5241 62.5 31.25 62.5H43.75C45.4759 62.5 46.875 61.1009 46.875 59.375M28.125 59.375V28.125C28.125 26.3991 29.5241 25 31.25 25H43.75C45.4759 25 46.875 26.3991 46.875 28.125V59.375M12.5 62.5H56.25M46.875 59.375C46.875 61.1009 48.2741 62.5 50 62.5H62.5C64.2259 62.5 65.625 61.1009 65.625 59.375V15.625C65.625 13.8991 64.2259 12.5 62.5 12.5H50C48.2741 12.5 46.875 13.8991 46.875 15.625V59.375Z" stroke="#DC944C" stroke-width="2" stroke-linecap="round" stroke-linejoin="round"/>
</svg>
