<svg width="75" height="75" viewBox="0 0 75 75" fill="none" xmlns="http://www.w3.org/2000/svg">
<path d="M62.5 18.75C62.5 23.9277 51.3071 28.125 37.5 28.125C23.6929 28.125 12.5 23.9277 12.5 18.75M62.5 18.75C62.5 13.5723 51.3071 9.375 37.5 9.375C23.6929 9.375 12.5 13.5723 12.5 18.75M62.5 18.75V37.5M12.5 18.75V37.5M12.5 37.5C12.5 39.9864 15.1339 42.371 19.8223 44.1291C24.5107 45.8873 30.8696 46.875 37.5 46.875C44.1304 46.875 50.4893 45.8873 55.1777 44.1291C59.8661 42.371 62.5 39.9864 62.5 37.5M12.5 37.5V56.25C12.5 58.7364 15.1339 61.121 19.8223 62.8791C24.5107 64.6373 30.8696 65.625 37.5 65.625C44.1304 65.625 50.4893 64.6373 55.1777 62.8791C59.8661 61.121 62.5 58.7364 62.5 56.25V37.5" stroke="#DC944C" stroke-width="2" stroke-linecap="round" stroke-linejoin="round"/>
</svg>
