<svg width="35" height="35" viewBox="0 0 35 35" fill="none" xmlns="http://www.w3.org/2000/svg">
<path d="M21.875 30.625H8.75C7.58968 30.625 6.47688 30.1641 5.65641 29.3436C4.83594 28.5231 4.375 27.4103 4.375 26.25V24.7917H18.9583V27.7083C18.9583 28.4819 19.2656 29.2237 19.8126 29.7707C20.3596 30.3177 21.1015 30.625 21.875 30.625ZM21.875 30.625C22.6485 30.625 23.3904 30.3177 23.9374 29.7707C24.4844 29.2237 24.7917 28.4819 24.7917 27.7083V7.29167C24.7917 6.71481 24.9627 6.1509 25.2832 5.67125C25.6037 5.19161 26.0592 4.81777 26.5922 4.59702C27.1251 4.37626 27.7116 4.3185 28.2773 4.43104C28.8431 4.54358 29.3628 4.82137 29.7707 5.22927C30.1786 5.63718 30.4564 6.15688 30.569 6.72265C30.6815 7.28843 30.6237 7.87488 30.403 8.40783C30.1822 8.94078 29.8084 9.3963 29.3287 9.71679C28.8491 10.0373 28.2852 10.2083 27.7083 10.2083H24.7917M27.7083 4.375H11.6667C10.5063 4.375 9.39355 4.83594 8.57307 5.65641C7.7526 6.47688 7.29167 7.58968 7.29167 8.75V24.7917" stroke="#120C12" stroke-width="3" stroke-linecap="round" stroke-linejoin="round"/>
<path d="M13.125 10.2083H18.9583" stroke="#120C12" stroke-width="3" stroke-linecap="round" stroke-linejoin="round"/>
<path d="M13.125 16.0417H18.9583" stroke="#120C12" stroke-width="3" stroke-linecap="round" stroke-linejoin="round"/>
</svg>
