<svg width="649" height="87" viewBox="0 0 649 87" fill="none" xmlns="http://www.w3.org/2000/svg">
<path d="M19.7063 29.2219C11.575 31.4813 6.25 35.2407 6.25 39.5C6.25 46.4063 20.2406 52 37.5 52C39.9156 52 42.2688 51.8906 44.525 51.6813M55.2875 49.7781C63.4219 47.5219 68.75 43.7594 68.75 39.5C68.75 32.5938 54.7594 27 37.5 27C35.0844 27 32.7312 27.1094 30.4688 27.3188M19.7031 49.7719C17.5906 57.9438 18.1875 64.4375 21.875 66.5625C27.8531 70.0156 39.6969 60.6969 48.325 45.75C49.5344 43.6563 50.6156 41.5656 51.5625 39.5063M55.2938 29.2375C57.4094 21.0625 56.8156 14.5625 53.125 12.4375C47.1469 8.9844 35.3031 18.3032 26.675 33.25C25.4656 35.3438 24.3844 37.4375 23.4344 39.4969M37.5 18.95C31.4844 13.0375 25.5625 10.3063 21.875 12.4375C15.8969 15.8875 18.0438 30.8032 26.675 45.75C27.8813 47.8438 29.1531 49.825 30.4625 51.675M37.4938 60.0438C43.5125 65.9594 49.4344 68.6938 53.125 66.5625C59.1031 63.1125 56.9562 48.1969 48.325 33.25C47.1536 31.2173 45.8898 29.2391 44.5375 27.3219M40.2063 41.0625C39.3434 42.5572 37.4322 43.0693 35.9375 42.2064C34.4428 41.3434 33.9307 39.4322 34.7937 37.9375C35.6566 36.4429 37.5678 35.9308 39.0625 36.7937C40.5572 37.6566 41.0693 39.5679 40.2063 41.0625Z" stroke="#DC944C" stroke-width="2" stroke-linecap="round" stroke-linejoin="round"/>
<path d="M129.951 39H128.475V30.108H129.825L129.897 30.864H129.969C130.437 30.588 130.905 30.384 131.373 30.252C131.841 30.108 132.303 30.036 132.759 30.036C132.951 30.036 133.077 30.036 133.137 30.036C133.209 30.036 133.263 30.042 133.299 30.054V31.476C133.215 31.452 133.107 31.44 132.975 31.44C132.855 31.428 132.663 31.422 132.399 31.422C131.967 31.422 131.541 31.476 131.121 31.584C130.713 31.68 130.323 31.83 129.951 32.034V39ZM137.701 39.144C136.717 39.144 135.979 38.898 135.487 38.406C134.995 37.914 134.749 37.176 134.749 36.192V30.108H136.225V36.012C136.225 36.624 136.381 37.068 136.693 37.344C137.005 37.62 137.497 37.758 138.169 37.758C138.577 37.758 138.985 37.71 139.393 37.614C139.813 37.506 140.233 37.344 140.653 37.128V30.108H142.129V39H140.779L140.707 38.262H140.671C140.047 38.586 139.507 38.814 139.051 38.946C138.595 39.078 138.145 39.144 137.701 39.144ZM149.726 37.614V38.856C149.534 38.94 149.27 39.006 148.934 39.054C148.61 39.114 148.298 39.144 147.998 39.144C146.918 39.144 146.144 38.904 145.676 38.424C145.22 37.944 144.992 37.116 144.992 35.94V31.368H143.66V30.108H145.01L145.244 27.948H146.468V30.108H149.636V31.368H146.468V35.886C146.468 36.618 146.6 37.116 146.864 37.38C147.14 37.644 147.62 37.776 148.304 37.776C148.52 37.776 148.766 37.758 149.042 37.722C149.33 37.686 149.558 37.65 149.726 37.614ZM152.662 39H151.186V30.108H152.536L152.608 30.864H152.68C153.148 30.588 153.616 30.384 154.084 30.252C154.552 30.108 155.014 30.036 155.47 30.036C155.662 30.036 155.788 30.036 155.848 30.036C155.92 30.036 155.974 30.042 156.01 30.054V31.476C155.926 31.452 155.818 31.44 155.686 31.44C155.566 31.428 155.374 31.422 155.11 31.422C154.678 31.422 154.252 31.476 153.832 31.584C153.424 31.68 153.034 31.83 152.662 32.034V39ZM160.412 39.144C159.428 39.144 158.69 38.898 158.198 38.406C157.706 37.914 157.46 37.176 157.46 36.192V30.108H158.936V36.012C158.936 36.624 159.092 37.068 159.404 37.344C159.716 37.62 160.208 37.758 160.88 37.758C161.288 37.758 161.696 37.71 162.104 37.614C162.524 37.506 162.944 37.344 163.364 37.128V30.108H164.84V39H163.49L163.418 38.262H163.382C162.758 38.586 162.218 38.814 161.762 38.946C161.306 39.078 160.856 39.144 160.412 39.144ZM168.693 39H167.217V30.108H168.567L168.639 30.792H168.693C169.221 30.492 169.701 30.276 170.133 30.144C170.565 30 170.997 29.928 171.429 29.928C171.933 29.928 172.365 30.006 172.725 30.162C173.085 30.318 173.367 30.552 173.571 30.864H173.625C174.105 30.564 174.609 30.336 175.137 30.18C175.677 30.012 176.217 29.928 176.757 29.928C177.609 29.928 178.251 30.156 178.683 30.612C179.127 31.056 179.349 31.716 179.349 32.592V39H177.873V32.772C177.873 32.256 177.735 31.878 177.459 31.638C177.183 31.386 176.745 31.26 176.145 31.26C175.809 31.26 175.455 31.314 175.083 31.422C174.711 31.518 174.339 31.662 173.967 31.854C173.991 31.974 174.003 32.094 174.003 32.214C174.015 32.334 174.021 32.46 174.021 32.592V39H172.545V32.772C172.545 32.256 172.407 31.878 172.131 31.638C171.855 31.386 171.417 31.26 170.817 31.26C170.517 31.26 170.199 31.314 169.863 31.422C169.527 31.518 169.137 31.686 168.693 31.926V39ZM182.765 39H181.289V37.506H182.765V39ZM191.984 34.266L189.248 33.618C188.492 33.438 187.946 33.132 187.61 32.7C187.274 32.256 187.106 31.644 187.106 30.864C187.106 29.724 187.43 28.884 188.078 28.344C188.738 27.804 189.758 27.534 191.138 27.534C191.714 27.534 192.23 27.564 192.686 27.624C193.154 27.672 193.586 27.75 193.982 27.858V29.244C193.478 29.124 192.998 29.04 192.542 28.992C192.086 28.944 191.612 28.92 191.12 28.92C190.196 28.92 189.548 29.058 189.176 29.334C188.804 29.598 188.618 30.072 188.618 30.756C188.618 31.188 188.702 31.518 188.87 31.746C189.05 31.962 189.338 32.118 189.734 32.214L192.452 32.862C193.412 33.09 194.048 33.414 194.36 33.834C194.684 34.242 194.846 34.878 194.846 35.742C194.846 36.978 194.522 37.854 193.874 38.37C193.238 38.886 192.224 39.144 190.832 39.144C190.1 39.144 189.392 39.096 188.708 39C188.036 38.904 187.502 38.778 187.106 38.622V37.182C187.67 37.35 188.27 37.482 188.906 37.578C189.542 37.662 190.184 37.704 190.832 37.704C191.732 37.704 192.362 37.572 192.722 37.308C193.082 37.044 193.262 36.534 193.262 35.778C193.262 35.31 193.172 34.974 192.992 34.77C192.824 34.554 192.488 34.386 191.984 34.266ZM203.268 37.272V38.514C202.956 38.682 202.494 38.832 201.882 38.964C201.282 39.084 200.67 39.144 200.046 39.144C198.654 39.144 197.658 38.784 197.058 38.064C196.458 37.344 196.158 36.156 196.158 34.5C196.158 32.904 196.47 31.746 197.094 31.026C197.718 30.294 198.714 29.928 200.082 29.928C201.354 29.928 202.266 30.216 202.818 30.792C203.37 31.356 203.646 32.304 203.646 33.636C203.646 33.876 203.64 34.098 203.628 34.302C203.616 34.506 203.592 34.752 203.556 35.04H197.652C197.664 36.024 197.862 36.726 198.246 37.146C198.642 37.566 199.32 37.776 200.28 37.776C200.796 37.776 201.336 37.728 201.9 37.632C202.464 37.536 202.92 37.416 203.268 37.272ZM202.296 33.438C202.284 32.646 202.11 32.088 201.774 31.764C201.438 31.428 200.874 31.26 200.082 31.26C199.194 31.26 198.564 31.452 198.192 31.836C197.832 32.208 197.652 32.868 197.652 33.816H202.278C202.278 33.792 202.278 33.738 202.278 33.654C202.29 33.558 202.296 33.486 202.296 33.438ZM211.441 27.03H212.917V39H211.639L211.531 38.172H211.495C211.147 38.496 210.721 38.742 210.217 38.91C209.725 39.066 209.155 39.144 208.507 39.144C207.295 39.144 206.425 38.784 205.897 38.064C205.381 37.344 205.123 36.168 205.123 34.536C205.123 32.904 205.441 31.728 206.077 31.008C206.713 30.288 207.775 29.928 209.263 29.928C209.683 29.928 210.073 29.964 210.433 30.036C210.805 30.096 211.141 30.186 211.441 30.306V27.03ZM209.443 31.26C208.327 31.26 207.571 31.494 207.175 31.962C206.791 32.43 206.599 33.288 206.599 34.536C206.599 35.748 206.767 36.594 207.103 37.074C207.451 37.542 208.093 37.776 209.029 37.776C209.473 37.776 209.899 37.722 210.307 37.614C210.715 37.494 211.093 37.32 211.441 37.092V31.62C211.153 31.5 210.847 31.41 210.523 31.35C210.199 31.29 209.839 31.26 209.443 31.26ZM223.291 37.614V38.856C223.099 38.94 222.835 39.006 222.499 39.054C222.175 39.114 221.863 39.144 221.563 39.144C220.483 39.144 219.709 38.904 219.241 38.424C218.785 37.944 218.557 37.116 218.557 35.94V31.368H217.225V30.108H218.575L218.809 27.948H220.033V30.108H223.201V31.368H220.033V35.886C220.033 36.618 220.165 37.116 220.429 37.38C220.705 37.644 221.185 37.776 221.869 37.776C222.085 37.776 222.331 37.758 222.607 37.722C222.895 37.686 223.123 37.65 223.291 37.614ZM231.323 37.272V38.514C231.011 38.682 230.549 38.832 229.937 38.964C229.337 39.084 228.725 39.144 228.101 39.144C226.709 39.144 225.713 38.784 225.113 38.064C224.513 37.344 224.213 36.156 224.213 34.5C224.213 32.904 224.525 31.746 225.149 31.026C225.773 30.294 226.769 29.928 228.137 29.928C229.409 29.928 230.321 30.216 230.873 30.792C231.425 31.356 231.701 32.304 231.701 33.636C231.701 33.876 231.695 34.098 231.683 34.302C231.671 34.506 231.647 34.752 231.611 35.04H225.707C225.719 36.024 225.917 36.726 226.301 37.146C226.697 37.566 227.375 37.776 228.335 37.776C228.851 37.776 229.391 37.728 229.955 37.632C230.519 37.536 230.975 37.416 231.323 37.272ZM230.351 33.438C230.339 32.646 230.165 32.088 229.829 31.764C229.493 31.428 228.929 31.26 228.137 31.26C227.249 31.26 226.619 31.452 226.247 31.836C225.887 32.208 225.707 32.868 225.707 33.816H230.333C230.333 33.792 230.333 33.738 230.333 33.654C230.345 33.558 230.351 33.486 230.351 33.438ZM235.086 27.03V39H233.61V27.03H235.086ZM238.935 27.03V39H237.459V27.03H238.935ZM244.189 39.144C243.205 39.144 242.467 38.898 241.975 38.406C241.483 37.914 241.237 37.176 241.237 36.192V30.108H242.713V36.012C242.713 36.624 242.869 37.068 243.181 37.344C243.493 37.62 243.985 37.758 244.657 37.758C245.065 37.758 245.473 37.71 245.881 37.614C246.301 37.506 246.721 37.344 247.141 37.128V30.108H248.617V39H247.267L247.195 38.262H247.159C246.535 38.586 245.995 38.814 245.539 38.946C245.083 39.078 244.633 39.144 244.189 39.144ZM254.055 31.26C253.287 31.26 252.753 31.35 252.453 31.53C252.165 31.71 252.021 32.076 252.021 32.628C252.021 32.916 252.087 33.138 252.219 33.294C252.363 33.438 252.585 33.534 252.885 33.582L255.171 33.924C255.891 34.032 256.395 34.26 256.683 34.608C256.971 34.944 257.115 35.478 257.115 36.21C257.115 37.242 256.869 37.992 256.377 38.46C255.885 38.916 255.069 39.144 253.929 39.144C253.245 39.144 252.609 39.108 252.021 39.036C251.433 38.964 250.947 38.868 250.563 38.748V37.362C250.947 37.482 251.415 37.584 251.967 37.668C252.531 37.74 253.107 37.776 253.695 37.776C254.439 37.776 254.949 37.668 255.225 37.452C255.501 37.236 255.639 36.852 255.639 36.3C255.639 35.952 255.561 35.7 255.405 35.544C255.249 35.376 254.967 35.262 254.559 35.202L252.273 34.86C251.697 34.776 251.265 34.554 250.977 34.194C250.701 33.834 250.557 33.312 250.545 32.628C250.545 31.692 250.821 31.008 251.373 30.576C251.937 30.144 252.801 29.928 253.965 29.928C254.445 29.928 254.877 29.94 255.261 29.964C255.657 29.988 256.071 30.036 256.503 30.108V31.422C256.191 31.374 255.825 31.338 255.405 31.314C254.985 31.278 254.535 31.26 254.055 31.26ZM263.511 28.56H261.927V27.03H263.511V28.56ZM263.457 39H261.981V30.108H263.457V39ZM267.307 41.736H265.831V30.108H267.109L267.199 30.9H267.253C267.625 30.588 268.069 30.348 268.585 30.18C269.101 30.012 269.653 29.928 270.241 29.928C271.453 29.928 272.317 30.288 272.833 31.008C273.361 31.728 273.625 32.904 273.625 34.536C273.625 36.168 273.307 37.344 272.671 38.064C272.035 38.784 270.973 39.144 269.485 39.144C269.041 39.144 268.633 39.114 268.261 39.054C267.901 38.994 267.583 38.904 267.307 38.784V41.736ZM272.149 34.536C272.149 33.312 271.975 32.46 271.627 31.98C271.291 31.5 270.655 31.26 269.719 31.26C269.275 31.26 268.849 31.326 268.441 31.458C268.045 31.578 267.667 31.758 267.307 31.998V37.416C267.607 37.536 267.913 37.626 268.225 37.686C268.549 37.746 268.909 37.776 269.305 37.776C270.421 37.776 271.171 37.548 271.555 37.092C271.951 36.624 272.149 35.772 272.149 34.536ZM278.629 31.26C277.861 31.26 277.327 31.35 277.027 31.53C276.739 31.71 276.595 32.076 276.595 32.628C276.595 32.916 276.661 33.138 276.793 33.294C276.937 33.438 277.159 33.534 277.459 33.582L279.745 33.924C280.465 34.032 280.969 34.26 281.257 34.608C281.545 34.944 281.689 35.478 281.689 36.21C281.689 37.242 281.443 37.992 280.951 38.46C280.459 38.916 279.643 39.144 278.503 39.144C277.819 39.144 277.183 39.108 276.595 39.036C276.007 38.964 275.521 38.868 275.137 38.748V37.362C275.521 37.482 275.989 37.584 276.541 37.668C277.105 37.74 277.681 37.776 278.269 37.776C279.013 37.776 279.523 37.668 279.799 37.452C280.075 37.236 280.213 36.852 280.213 36.3C280.213 35.952 280.135 35.7 279.979 35.544C279.823 35.376 279.541 35.262 279.133 35.202L276.847 34.86C276.271 34.776 275.839 34.554 275.551 34.194C275.275 33.834 275.131 33.312 275.119 32.628C275.119 31.692 275.395 31.008 275.947 30.576C276.511 30.144 277.375 29.928 278.539 29.928C279.019 29.928 279.451 29.94 279.835 29.964C280.231 29.988 280.645 30.036 281.077 30.108V31.422C280.765 31.374 280.399 31.338 279.979 31.314C279.559 31.278 279.109 31.26 278.629 31.26ZM286.359 39.144C285.375 39.144 284.637 38.898 284.145 38.406C283.653 37.914 283.407 37.176 283.407 36.192V30.108H284.883V36.012C284.883 36.624 285.039 37.068 285.351 37.344C285.663 37.62 286.155 37.758 286.827 37.758C287.235 37.758 287.643 37.71 288.051 37.614C288.471 37.506 288.891 37.344 289.311 37.128V30.108H290.787V39H289.437L289.365 38.262H289.329C288.705 38.586 288.165 38.814 287.709 38.946C287.253 39.078 286.803 39.144 286.359 39.144ZM294.641 39H293.165V30.108H294.515L294.587 30.792H294.641C295.169 30.492 295.649 30.276 296.081 30.144C296.513 30 296.945 29.928 297.377 29.928C297.881 29.928 298.313 30.006 298.673 30.162C299.033 30.318 299.315 30.552 299.519 30.864H299.573C300.053 30.564 300.557 30.336 301.085 30.18C301.625 30.012 302.165 29.928 302.705 29.928C303.557 29.928 304.199 30.156 304.631 30.612C305.075 31.056 305.297 31.716 305.297 32.592V39H303.821V32.772C303.821 32.256 303.683 31.878 303.407 31.638C303.131 31.386 302.693 31.26 302.093 31.26C301.757 31.26 301.403 31.314 301.031 31.422C300.659 31.518 300.287 31.662 299.915 31.854C299.939 31.974 299.951 32.094 299.951 32.214C299.963 32.334 299.969 32.46 299.969 32.592V39H298.493V32.772C298.493 32.256 298.355 31.878 298.079 31.638C297.803 31.386 297.365 31.26 296.765 31.26C296.465 31.26 296.147 31.314 295.811 31.422C295.475 31.518 295.085 31.686 294.641 31.926V39ZM308.712 37.452L308.262 40.242C308.238 40.422 308.166 40.56 308.046 40.656C307.938 40.752 307.794 40.8 307.614 40.8H307.146L307.236 37.452H308.712ZM316.422 31.26C315.654 31.26 315.12 31.35 314.82 31.53C314.532 31.71 314.388 32.076 314.388 32.628C314.388 32.916 314.454 33.138 314.586 33.294C314.73 33.438 314.952 33.534 315.252 33.582L317.538 33.924C318.258 34.032 318.762 34.26 319.05 34.608C319.338 34.944 319.482 35.478 319.482 36.21C319.482 37.242 319.236 37.992 318.744 38.46C318.252 38.916 317.436 39.144 316.296 39.144C315.612 39.144 314.976 39.108 314.388 39.036C313.8 38.964 313.314 38.868 312.93 38.748V37.362C313.314 37.482 313.782 37.584 314.334 37.668C314.898 37.74 315.474 37.776 316.062 37.776C316.806 37.776 317.316 37.668 317.592 37.452C317.868 37.236 318.006 36.852 318.006 36.3C318.006 35.952 317.928 35.7 317.772 35.544C317.616 35.376 317.334 35.262 316.926 35.202L314.64 34.86C314.064 34.776 313.632 34.554 313.344 34.194C313.068 33.834 312.924 33.312 312.912 32.628C312.912 31.692 313.188 31.008 313.74 30.576C314.304 30.144 315.168 29.928 316.332 29.928C316.812 29.928 317.244 29.94 317.628 29.964C318.024 29.988 318.438 30.036 318.87 30.108V31.422C318.558 31.374 318.192 31.338 317.772 31.314C317.352 31.278 316.902 31.26 316.422 31.26ZM324.152 39.144C323.168 39.144 322.43 38.898 321.938 38.406C321.446 37.914 321.2 37.176 321.2 36.192V30.108H322.676V36.012C322.676 36.624 322.832 37.068 323.144 37.344C323.456 37.62 323.948 37.758 324.62 37.758C325.028 37.758 325.436 37.71 325.844 37.614C326.264 37.506 326.684 37.344 327.104 37.128V30.108H328.58V39H327.23L327.158 38.262H327.122C326.498 38.586 325.958 38.814 325.502 38.946C325.046 39.078 324.596 39.144 324.152 39.144ZM334.018 31.26C333.25 31.26 332.716 31.35 332.416 31.53C332.128 31.71 331.984 32.076 331.984 32.628C331.984 32.916 332.05 33.138 332.182 33.294C332.326 33.438 332.548 33.534 332.848 33.582L335.134 33.924C335.854 34.032 336.358 34.26 336.646 34.608C336.934 34.944 337.078 35.478 337.078 36.21C337.078 37.242 336.832 37.992 336.34 38.46C335.848 38.916 335.032 39.144 333.892 39.144C333.208 39.144 332.572 39.108 331.984 39.036C331.396 38.964 330.91 38.868 330.526 38.748V37.362C330.91 37.482 331.378 37.584 331.93 37.668C332.494 37.74 333.07 37.776 333.658 37.776C334.402 37.776 334.912 37.668 335.188 37.452C335.464 37.236 335.602 36.852 335.602 36.3C335.602 35.952 335.524 35.7 335.368 35.544C335.212 35.376 334.93 35.262 334.522 35.202L332.236 34.86C331.66 34.776 331.228 34.554 330.94 34.194C330.664 33.834 330.52 33.312 330.508 32.628C330.508 31.692 330.784 31.008 331.336 30.576C331.9 30.144 332.764 29.928 333.928 29.928C334.408 29.928 334.84 29.94 335.224 29.964C335.62 29.988 336.034 30.036 336.466 30.108V31.422C336.154 31.374 335.788 31.338 335.368 31.314C334.948 31.278 334.498 31.26 334.018 31.26ZM345.078 37.236V38.478C344.778 38.67 344.328 38.832 343.728 38.964C343.14 39.084 342.522 39.144 341.874 39.144C340.614 39.144 339.726 38.802 339.21 38.118C338.706 37.434 338.454 36.24 338.454 34.536C338.454 32.868 338.784 31.686 339.444 30.99C340.104 30.282 341.226 29.928 342.81 29.928C343.158 29.928 343.47 29.94 343.746 29.964C344.034 29.976 344.4 30.012 344.844 30.072V31.386C344.4 31.326 344.034 31.29 343.746 31.278C343.47 31.266 343.158 31.26 342.81 31.26C341.682 31.26 340.92 31.494 340.524 31.962C340.128 32.418 339.93 33.276 339.93 34.536C339.93 35.796 340.086 36.654 340.398 37.11C340.71 37.554 341.31 37.776 342.198 37.776C342.69 37.776 343.2 37.728 343.728 37.632C344.256 37.524 344.706 37.392 345.078 37.236ZM348.308 28.56H346.724V27.03H348.308V28.56ZM348.254 39H346.778V30.108H348.254V39ZM352.103 41.736H350.627V30.108H351.905L351.995 30.9H352.049C352.421 30.588 352.865 30.348 353.381 30.18C353.897 30.012 354.449 29.928 355.037 29.928C356.249 29.928 357.113 30.288 357.629 31.008C358.157 31.728 358.421 32.904 358.421 34.536C358.421 36.168 358.103 37.344 357.467 38.064C356.831 38.784 355.769 39.144 354.281 39.144C353.837 39.144 353.429 39.114 353.057 39.054C352.697 38.994 352.379 38.904 352.103 38.784V41.736ZM356.945 34.536C356.945 33.312 356.771 32.46 356.423 31.98C356.087 31.5 355.451 31.26 354.515 31.26C354.071 31.26 353.645 31.326 353.237 31.458C352.841 31.578 352.463 31.758 352.103 31.998V37.416C352.403 37.536 352.709 37.626 353.021 37.686C353.345 37.746 353.705 37.776 354.101 37.776C355.217 37.776 355.967 37.548 356.351 37.092C356.747 36.624 356.945 35.772 356.945 34.536ZM361.896 28.56H360.312V27.03H361.896V28.56ZM361.842 39H360.366V30.108H361.842V39ZM369.435 37.614V38.856C369.243 38.94 368.979 39.006 368.643 39.054C368.319 39.114 368.007 39.144 367.707 39.144C366.627 39.144 365.853 38.904 365.385 38.424C364.929 37.944 364.701 37.116 364.701 35.94V31.368H363.369V30.108H364.719L364.953 27.948H366.177V30.108H369.345V31.368H366.177V35.886C366.177 36.618 366.309 37.116 366.573 37.38C366.849 37.644 367.329 37.776 368.013 37.776C368.229 37.776 368.475 37.758 368.751 37.722C369.039 37.686 369.267 37.65 369.435 37.614ZM380.649 37.272V38.514C380.337 38.682 379.875 38.832 379.263 38.964C378.663 39.084 378.051 39.144 377.427 39.144C376.035 39.144 375.039 38.784 374.439 38.064C373.839 37.344 373.539 36.156 373.539 34.5C373.539 32.904 373.851 31.746 374.475 31.026C375.099 30.294 376.095 29.928 377.463 29.928C378.735 29.928 379.647 30.216 380.199 30.792C380.751 31.356 381.027 32.304 381.027 33.636C381.027 33.876 381.021 34.098 381.009 34.302C380.997 34.506 380.973 34.752 380.937 35.04H375.033C375.045 36.024 375.243 36.726 375.627 37.146C376.023 37.566 376.701 37.776 377.661 37.776C378.177 37.776 378.717 37.728 379.281 37.632C379.845 37.536 380.301 37.416 380.649 37.272ZM379.677 33.438C379.665 32.646 379.491 32.088 379.155 31.764C378.819 31.428 378.255 31.26 377.463 31.26C376.575 31.26 375.945 31.452 375.573 31.836C375.213 32.208 375.033 32.868 375.033 33.816H379.659C379.659 33.792 379.659 33.738 379.659 33.654C379.671 33.558 379.677 33.486 379.677 33.438ZM388.068 37.614V38.856C387.876 38.94 387.612 39.006 387.276 39.054C386.952 39.114 386.64 39.144 386.34 39.144C385.26 39.144 384.486 38.904 384.018 38.424C383.562 37.944 383.334 37.116 383.334 35.94V31.368H382.002V30.108H383.352L383.586 27.948H384.81V30.108H387.978V31.368H384.81V35.886C384.81 36.618 384.942 37.116 385.206 37.38C385.482 37.644 385.962 37.776 386.646 37.776C386.862 37.776 387.108 37.758 387.384 37.722C387.672 37.686 387.9 37.65 388.068 37.614ZM400.416 34.536C400.416 36.216 400.104 37.404 399.48 38.1C398.868 38.796 397.812 39.144 396.312 39.144C394.764 39.144 393.69 38.808 393.09 38.136C392.49 37.464 392.19 36.264 392.19 34.536C392.19 32.844 392.496 31.656 393.108 30.972C393.732 30.276 394.8 29.928 396.312 29.928C397.86 29.928 398.928 30.264 399.516 30.936C400.116 31.608 400.416 32.808 400.416 34.536ZM393.666 34.518C393.666 35.838 393.84 36.714 394.188 37.146C394.536 37.566 395.244 37.776 396.312 37.776C397.344 37.776 398.04 37.554 398.4 37.11C398.76 36.654 398.94 35.79 398.94 34.518C398.94 33.198 398.766 32.328 398.418 31.908C398.082 31.476 397.38 31.26 396.312 31.26C395.268 31.26 394.566 31.482 394.206 31.926C393.846 32.37 393.666 33.234 393.666 34.518ZM408.263 27.03H409.739V39H408.461L408.353 38.172H408.317C407.969 38.496 407.543 38.742 407.039 38.91C406.547 39.066 405.977 39.144 405.329 39.144C404.117 39.144 403.247 38.784 402.719 38.064C402.203 37.344 401.945 36.168 401.945 34.536C401.945 32.904 402.263 31.728 402.899 31.008C403.535 30.288 404.597 29.928 406.085 29.928C406.505 29.928 406.895 29.964 407.255 30.036C407.627 30.096 407.963 30.186 408.263 30.306V27.03ZM406.265 31.26C405.149 31.26 404.393 31.494 403.997 31.962C403.613 32.43 403.421 33.288 403.421 34.536C403.421 35.748 403.589 36.594 403.925 37.074C404.273 37.542 404.915 37.776 405.851 37.776C406.295 37.776 406.721 37.722 407.129 37.614C407.537 37.494 407.915 37.32 408.263 37.092V31.62C407.975 31.5 407.669 31.41 407.345 31.35C407.021 31.29 406.661 31.26 406.265 31.26ZM413.646 28.56H412.062V27.03H413.646V28.56ZM413.592 39H412.116V30.108H413.592V39ZM423.777 34.536C423.777 36.216 423.465 37.404 422.841 38.1C422.229 38.796 421.173 39.144 419.673 39.144C418.125 39.144 417.051 38.808 416.451 38.136C415.851 37.464 415.551 36.264 415.551 34.536C415.551 32.844 415.857 31.656 416.469 30.972C417.093 30.276 418.161 29.928 419.673 29.928C421.221 29.928 422.289 30.264 422.877 30.936C423.477 31.608 423.777 32.808 423.777 34.536ZM417.027 34.518C417.027 35.838 417.201 36.714 417.549 37.146C417.897 37.566 418.605 37.776 419.673 37.776C420.705 37.776 421.401 37.554 421.761 37.11C422.121 36.654 422.301 35.79 422.301 34.518C422.301 33.198 422.127 32.328 421.779 31.908C421.443 31.476 420.741 31.26 419.673 31.26C418.629 31.26 417.927 31.482 417.567 31.926C417.207 32.37 417.027 33.234 417.027 34.518ZM431.875 31.26C431.107 31.26 430.573 31.35 430.273 31.53C429.985 31.71 429.841 32.076 429.841 32.628C429.841 32.916 429.907 33.138 430.039 33.294C430.183 33.438 430.405 33.534 430.705 33.582L432.991 33.924C433.711 34.032 434.215 34.26 434.503 34.608C434.791 34.944 434.935 35.478 434.935 36.21C434.935 37.242 434.689 37.992 434.197 38.46C433.705 38.916 432.889 39.144 431.749 39.144C431.065 39.144 430.429 39.108 429.841 39.036C429.253 38.964 428.767 38.868 428.383 38.748V37.362C428.767 37.482 429.235 37.584 429.787 37.668C430.351 37.74 430.927 37.776 431.515 37.776C432.259 37.776 432.769 37.668 433.045 37.452C433.321 37.236 433.459 36.852 433.459 36.3C433.459 35.952 433.381 35.7 433.225 35.544C433.069 35.376 432.787 35.262 432.379 35.202L430.093 34.86C429.517 34.776 429.085 34.554 428.797 34.194C428.521 33.834 428.377 33.312 428.365 32.628C428.365 31.692 428.641 31.008 429.193 30.576C429.757 30.144 430.621 29.928 431.785 29.928C432.265 29.928 432.697 29.94 433.081 29.964C433.477 29.988 433.891 30.036 434.323 30.108V31.422C434.011 31.374 433.645 31.338 433.225 31.314C432.805 31.278 432.355 31.26 431.875 31.26ZM443.403 37.272V38.514C443.091 38.682 442.629 38.832 442.017 38.964C441.417 39.084 440.805 39.144 440.181 39.144C438.789 39.144 437.793 38.784 437.193 38.064C436.593 37.344 436.293 36.156 436.293 34.5C436.293 32.904 436.605 31.746 437.229 31.026C437.853 30.294 438.849 29.928 440.217 29.928C441.489 29.928 442.401 30.216 442.953 30.792C443.505 31.356 443.781 32.304 443.781 33.636C443.781 33.876 443.775 34.098 443.763 34.302C443.751 34.506 443.727 34.752 443.691 35.04H437.787C437.799 36.024 437.997 36.726 438.381 37.146C438.777 37.566 439.455 37.776 440.415 37.776C440.931 37.776 441.471 37.728 442.035 37.632C442.599 37.536 443.055 37.416 443.403 37.272ZM442.431 33.438C442.419 32.646 442.245 32.088 441.909 31.764C441.573 31.428 441.009 31.26 440.217 31.26C439.329 31.26 438.699 31.452 438.327 31.836C437.967 32.208 437.787 32.868 437.787 33.816H442.413C442.413 33.792 442.413 33.738 442.413 33.654C442.425 33.558 442.431 33.486 442.431 33.438ZM451.576 27.03H453.052V39H451.774L451.666 38.172H451.63C451.282 38.496 450.856 38.742 450.352 38.91C449.86 39.066 449.29 39.144 448.642 39.144C447.43 39.144 446.56 38.784 446.032 38.064C445.516 37.344 445.258 36.168 445.258 34.536C445.258 32.904 445.576 31.728 446.212 31.008C446.848 30.288 447.91 29.928 449.398 29.928C449.818 29.928 450.208 29.964 450.568 30.036C450.94 30.096 451.276 30.186 451.576 30.306V27.03ZM449.578 31.26C448.462 31.26 447.706 31.494 447.31 31.962C446.926 32.43 446.734 33.288 446.734 34.536C446.734 35.748 446.902 36.594 447.238 37.074C447.586 37.542 448.228 37.776 449.164 37.776C449.608 37.776 450.034 37.722 450.442 37.614C450.85 37.494 451.228 37.32 451.576 37.092V31.62C451.288 31.5 450.982 31.41 450.658 31.35C450.334 31.29 449.974 31.26 449.578 31.26ZM456.544 37.452L456.094 40.242C456.07 40.422 455.998 40.56 455.878 40.656C455.77 40.752 455.626 40.8 455.446 40.8H454.978L455.068 37.452H456.544ZM467.08 27.03H468.556V39H467.278L467.17 38.172H467.134C466.786 38.496 466.36 38.742 465.856 38.91C465.364 39.066 464.794 39.144 464.146 39.144C462.934 39.144 462.064 38.784 461.536 38.064C461.02 37.344 460.762 36.168 460.762 34.536C460.762 32.904 461.08 31.728 461.716 31.008C462.352 30.288 463.414 29.928 464.902 29.928C465.322 29.928 465.712 29.964 466.072 30.036C466.444 30.096 466.78 30.186 467.08 30.306V27.03ZM465.082 31.26C463.966 31.26 463.21 31.494 462.814 31.962C462.43 32.43 462.238 33.288 462.238 34.536C462.238 35.748 462.406 36.594 462.742 37.074C463.09 37.542 463.732 37.776 464.668 37.776C465.112 37.776 465.538 37.722 465.946 37.614C466.354 37.494 466.732 37.32 467.08 37.092V31.62C466.792 31.5 466.486 31.41 466.162 31.35C465.838 31.29 465.478 31.26 465.082 31.26ZM472.948 39.144C472.036 39.144 471.364 38.928 470.932 38.496C470.512 38.052 470.302 37.356 470.302 36.408C470.302 35.448 470.56 34.77 471.076 34.374C471.592 33.966 472.468 33.762 473.704 33.762C474.112 33.762 474.514 33.78 474.91 33.816C475.306 33.852 475.678 33.906 476.026 33.978V33.114C476.026 32.454 475.858 31.98 475.522 31.692C475.186 31.404 474.646 31.26 473.902 31.26C473.35 31.26 472.864 31.284 472.444 31.332C472.024 31.368 471.604 31.434 471.184 31.53V30.252C471.664 30.132 472.15 30.048 472.642 30C473.146 29.952 473.716 29.928 474.352 29.928C475.42 29.928 476.212 30.18 476.728 30.684C477.244 31.176 477.502 31.944 477.502 32.988V39H476.152L476.08 38.172H476.044C475.684 38.46 475.216 38.694 474.64 38.874C474.076 39.054 473.512 39.144 472.948 39.144ZM473.866 34.968C473.05 34.968 472.48 35.07 472.156 35.274C471.844 35.466 471.688 35.814 471.688 36.318C471.688 36.846 471.82 37.23 472.084 37.47C472.348 37.698 472.78 37.812 473.38 37.812C473.848 37.812 474.328 37.74 474.82 37.596C475.312 37.452 475.714 37.272 476.026 37.056V35.148C475.63 35.088 475.258 35.046 474.91 35.022C474.574 34.986 474.226 34.968 473.866 34.968ZM481.285 41.736H479.809V30.108H481.087L481.177 30.9H481.231C481.603 30.588 482.047 30.348 482.563 30.18C483.079 30.012 483.631 29.928 484.219 29.928C485.431 29.928 486.295 30.288 486.811 31.008C487.339 31.728 487.603 32.904 487.603 34.536C487.603 36.168 487.285 37.344 486.649 38.064C486.013 38.784 484.951 39.144 483.463 39.144C483.019 39.144 482.611 39.114 482.239 39.054C481.879 38.994 481.561 38.904 481.285 38.784V41.736ZM486.127 34.536C486.127 33.312 485.953 32.46 485.605 31.98C485.269 31.5 484.633 31.26 483.697 31.26C483.253 31.26 482.827 31.326 482.419 31.458C482.023 31.578 481.645 31.758 481.285 31.998V37.416C481.585 37.536 481.891 37.626 482.203 37.686C482.527 37.746 482.887 37.776 483.283 37.776C484.399 37.776 485.149 37.548 485.533 37.092C485.929 36.624 486.127 35.772 486.127 34.536ZM491.077 28.56H489.493V27.03H491.077V28.56ZM491.023 39H489.547V30.108H491.023V39ZM497.789 29.928C499.001 29.928 499.865 30.288 500.381 31.008C500.909 31.716 501.173 32.88 501.173 34.5C501.173 36.156 500.849 37.344 500.201 38.064C499.553 38.784 498.467 39.144 496.943 39.144C496.259 39.144 495.617 39.102 495.017 39.018C494.417 38.946 493.871 38.832 493.379 38.676V27.03H494.855V30.72C495.275 30.468 495.737 30.276 496.241 30.144C496.745 30 497.261 29.928 497.789 29.928ZM499.697 34.5C499.697 33.288 499.523 32.448 499.175 31.98C498.839 31.5 498.203 31.26 497.267 31.26C496.835 31.26 496.409 31.32 495.989 31.44C495.569 31.548 495.191 31.704 494.855 31.908V37.542C495.119 37.614 495.419 37.674 495.755 37.722C496.091 37.758 496.457 37.776 496.853 37.776C497.969 37.776 498.719 37.542 499.103 37.074C499.499 36.606 499.697 35.748 499.697 34.5ZM505.998 39.144C505.014 39.144 504.276 38.898 503.784 38.406C503.292 37.914 503.046 37.176 503.046 36.192V30.108H504.522V36.012C504.522 36.624 504.678 37.068 504.99 37.344C505.302 37.62 505.794 37.758 506.466 37.758C506.874 37.758 507.282 37.71 507.69 37.614C508.11 37.506 508.53 37.344 508.95 37.128V30.108H510.426V39H509.076L509.004 38.262H508.968C508.344 38.586 507.804 38.814 507.348 38.946C506.892 39.078 506.442 39.144 505.998 39.144ZM515.863 31.26C515.095 31.26 514.561 31.35 514.261 31.53C513.973 31.71 513.829 32.076 513.829 32.628C513.829 32.916 513.895 33.138 514.027 33.294C514.171 33.438 514.393 33.534 514.693 33.582L516.979 33.924C517.699 34.032 518.203 34.26 518.491 34.608C518.779 34.944 518.923 35.478 518.923 36.21C518.923 37.242 518.677 37.992 518.185 38.46C517.693 38.916 516.877 39.144 515.737 39.144C515.053 39.144 514.417 39.108 513.829 39.036C513.241 38.964 512.755 38.868 512.371 38.748V37.362C512.755 37.482 513.223 37.584 513.775 37.668C514.339 37.74 514.915 37.776 515.503 37.776C516.247 37.776 516.757 37.668 517.033 37.452C517.309 37.236 517.447 36.852 517.447 36.3C517.447 35.952 517.369 35.7 517.213 35.544C517.057 35.376 516.775 35.262 516.367 35.202L514.081 34.86C513.505 34.776 513.073 34.554 512.785 34.194C512.509 33.834 512.365 33.312 512.353 32.628C512.353 31.692 512.629 31.008 513.181 30.576C513.745 30.144 514.609 29.928 515.773 29.928C516.253 29.928 516.685 29.94 517.069 29.964C517.465 29.988 517.879 30.036 518.311 30.108V31.422C517.999 31.374 517.633 31.338 517.213 31.314C516.793 31.278 516.343 31.26 515.863 31.26ZM526.85 31.26C526.082 31.26 525.548 31.35 525.248 31.53C524.96 31.71 524.816 32.076 524.816 32.628C524.816 32.916 524.882 33.138 525.014 33.294C525.158 33.438 525.38 33.534 525.68 33.582L527.966 33.924C528.686 34.032 529.19 34.26 529.478 34.608C529.766 34.944 529.91 35.478 529.91 36.21C529.91 37.242 529.664 37.992 529.172 38.46C528.68 38.916 527.864 39.144 526.724 39.144C526.04 39.144 525.404 39.108 524.816 39.036C524.228 38.964 523.742 38.868 523.358 38.748V37.362C523.742 37.482 524.21 37.584 524.762 37.668C525.326 37.74 525.902 37.776 526.49 37.776C527.234 37.776 527.744 37.668 528.02 37.452C528.296 37.236 528.434 36.852 528.434 36.3C528.434 35.952 528.356 35.7 528.2 35.544C528.044 35.376 527.762 35.262 527.354 35.202L525.068 34.86C524.492 34.776 524.06 34.554 523.772 34.194C523.496 33.834 523.352 33.312 523.34 32.628C523.34 31.692 523.616 31.008 524.168 30.576C524.732 30.144 525.596 29.928 526.76 29.928C527.24 29.928 527.672 29.94 528.056 29.964C528.452 29.988 528.866 30.036 529.298 30.108V31.422C528.986 31.374 528.62 31.338 528.2 31.314C527.78 31.278 527.33 31.26 526.85 31.26ZM539.512 34.536C539.512 36.216 539.2 37.404 538.576 38.1C537.964 38.796 536.908 39.144 535.408 39.144C533.86 39.144 532.786 38.808 532.186 38.136C531.586 37.464 531.286 36.264 531.286 34.536C531.286 32.844 531.592 31.656 532.204 30.972C532.828 30.276 533.896 29.928 535.408 29.928C536.956 29.928 538.024 30.264 538.612 30.936C539.212 31.608 539.512 32.808 539.512 34.536ZM532.762 34.518C532.762 35.838 532.936 36.714 533.284 37.146C533.632 37.566 534.34 37.776 535.408 37.776C536.44 37.776 537.136 37.554 537.496 37.11C537.856 36.654 538.036 35.79 538.036 34.518C538.036 33.198 537.862 32.328 537.514 31.908C537.178 31.476 536.476 31.26 535.408 31.26C534.364 31.26 533.662 31.482 533.302 31.926C532.942 32.37 532.762 33.234 532.762 34.518ZM547.359 27.03H548.835V39H547.557L547.449 38.172H547.413C547.065 38.496 546.639 38.742 546.135 38.91C545.643 39.066 545.073 39.144 544.425 39.144C543.213 39.144 542.343 38.784 541.815 38.064C541.299 37.344 541.041 36.168 541.041 34.536C541.041 32.904 541.359 31.728 541.995 31.008C542.631 30.288 543.693 29.928 545.181 29.928C545.601 29.928 545.991 29.964 546.351 30.036C546.723 30.096 547.059 30.186 547.359 30.306V27.03ZM545.361 31.26C544.245 31.26 543.489 31.494 543.093 31.962C542.709 32.43 542.517 33.288 542.517 34.536C542.517 35.748 542.685 36.594 543.021 37.074C543.369 37.542 544.011 37.776 544.947 37.776C545.391 37.776 545.817 37.722 546.225 37.614C546.633 37.494 547.011 37.32 547.359 37.092V31.62C547.071 31.5 546.765 31.41 546.441 31.35C546.117 31.29 545.757 31.26 545.361 31.26ZM553.227 39.144C552.315 39.144 551.643 38.928 551.211 38.496C550.791 38.052 550.581 37.356 550.581 36.408C550.581 35.448 550.839 34.77 551.355 34.374C551.871 33.966 552.747 33.762 553.983 33.762C554.391 33.762 554.793 33.78 555.189 33.816C555.585 33.852 555.957 33.906 556.305 33.978V33.114C556.305 32.454 556.137 31.98 555.801 31.692C555.465 31.404 554.925 31.26 554.181 31.26C553.629 31.26 553.143 31.284 552.723 31.332C552.303 31.368 551.883 31.434 551.463 31.53V30.252C551.943 30.132 552.429 30.048 552.921 30C553.425 29.952 553.995 29.928 554.631 29.928C555.699 29.928 556.491 30.18 557.007 30.684C557.523 31.176 557.781 31.944 557.781 32.988V39H556.431L556.359 38.172H556.323C555.963 38.46 555.495 38.694 554.919 38.874C554.355 39.054 553.791 39.144 553.227 39.144ZM554.145 34.968C553.329 34.968 552.759 35.07 552.435 35.274C552.123 35.466 551.967 35.814 551.967 36.318C551.967 36.846 552.099 37.23 552.363 37.47C552.627 37.698 553.059 37.812 553.659 37.812C554.127 37.812 554.607 37.74 555.099 37.596C555.591 37.452 555.993 37.272 556.305 37.056V35.148C555.909 35.088 555.537 35.046 555.189 35.022C554.853 34.986 554.505 34.968 554.145 34.968ZM561.564 27.03V39H560.088V27.03H561.564ZM570.616 37.272V38.514C570.304 38.682 569.842 38.832 569.23 38.964C568.63 39.084 568.018 39.144 567.394 39.144C566.002 39.144 565.006 38.784 564.406 38.064C563.806 37.344 563.506 36.156 563.506 34.5C563.506 32.904 563.818 31.746 564.442 31.026C565.066 30.294 566.062 29.928 567.43 29.928C568.702 29.928 569.614 30.216 570.166 30.792C570.718 31.356 570.994 32.304 570.994 33.636C570.994 33.876 570.988 34.098 570.976 34.302C570.964 34.506 570.94 34.752 570.904 35.04H565C565.012 36.024 565.21 36.726 565.594 37.146C565.99 37.566 566.668 37.776 567.628 37.776C568.144 37.776 568.684 37.728 569.248 37.632C569.812 37.536 570.268 37.416 570.616 37.272ZM569.644 33.438C569.632 32.646 569.458 32.088 569.122 31.764C568.786 31.428 568.222 31.26 567.43 31.26C566.542 31.26 565.912 31.452 565.54 31.836C565.18 32.208 565 32.868 565 33.816H569.626C569.626 33.792 569.626 33.738 569.626 33.654C569.638 33.558 569.644 33.486 569.644 33.438ZM575.963 31.26C575.195 31.26 574.661 31.35 574.361 31.53C574.073 31.71 573.929 32.076 573.929 32.628C573.929 32.916 573.995 33.138 574.127 33.294C574.271 33.438 574.493 33.534 574.793 33.582L577.079 33.924C577.799 34.032 578.303 34.26 578.591 34.608C578.879 34.944 579.023 35.478 579.023 36.21C579.023 37.242 578.777 37.992 578.285 38.46C577.793 38.916 576.977 39.144 575.837 39.144C575.153 39.144 574.517 39.108 573.929 39.036C573.341 38.964 572.855 38.868 572.471 38.748V37.362C572.855 37.482 573.323 37.584 573.875 37.668C574.439 37.74 575.015 37.776 575.603 37.776C576.347 37.776 576.857 37.668 577.133 37.452C577.409 37.236 577.547 36.852 577.547 36.3C577.547 35.952 577.469 35.7 577.313 35.544C577.157 35.376 576.875 35.262 576.467 35.202L574.181 34.86C573.605 34.776 573.173 34.554 572.885 34.194C572.609 33.834 572.465 33.312 572.453 32.628C572.453 31.692 572.729 31.008 573.281 30.576C573.845 30.144 574.709 29.928 575.873 29.928C576.353 29.928 576.785 29.94 577.169 29.964C577.565 29.988 577.979 30.036 578.411 30.108V31.422C578.099 31.374 577.733 31.338 577.313 31.314C576.893 31.278 576.443 31.26 575.963 31.26ZM585.365 27.03V39H583.889V27.03H585.365ZM595.551 34.536C595.551 36.216 595.239 37.404 594.615 38.1C594.003 38.796 592.947 39.144 591.447 39.144C589.899 39.144 588.825 38.808 588.225 38.136C587.625 37.464 587.325 36.264 587.325 34.536C587.325 32.844 587.631 31.656 588.243 30.972C588.867 30.276 589.935 29.928 591.447 29.928C592.995 29.928 594.063 30.264 594.651 30.936C595.251 31.608 595.551 32.808 595.551 34.536ZM588.801 34.518C588.801 35.838 588.975 36.714 589.323 37.146C589.671 37.566 590.379 37.776 591.447 37.776C592.479 37.776 593.175 37.554 593.535 37.11C593.895 36.654 594.075 35.79 594.075 34.518C594.075 33.198 593.901 32.328 593.553 31.908C593.217 31.476 592.515 31.26 591.447 31.26C590.403 31.26 589.701 31.482 589.341 31.926C588.981 32.37 588.801 33.234 588.801 34.518ZM598.988 39H597.512V30.108H598.862L598.934 30.864H599.006C599.474 30.588 599.942 30.384 600.41 30.252C600.878 30.108 601.34 30.036 601.796 30.036C601.988 30.036 602.114 30.036 602.174 30.036C602.246 30.036 602.3 30.042 602.336 30.054V31.476C602.252 31.452 602.144 31.44 602.012 31.44C601.892 31.428 601.7 31.422 601.436 31.422C601.004 31.422 600.578 31.476 600.158 31.584C599.75 31.68 599.36 31.83 598.988 32.034V39ZM610.307 37.272V38.514C609.995 38.682 609.533 38.832 608.921 38.964C608.321 39.084 607.709 39.144 607.085 39.144C605.693 39.144 604.697 38.784 604.097 38.064C603.497 37.344 603.197 36.156 603.197 34.5C603.197 32.904 603.509 31.746 604.133 31.026C604.757 30.294 605.753 29.928 607.121 29.928C608.393 29.928 609.305 30.216 609.857 30.792C610.409 31.356 610.685 32.304 610.685 33.636C610.685 33.876 610.679 34.098 610.667 34.302C610.655 34.506 610.631 34.752 610.595 35.04H604.691C604.703 36.024 604.901 36.726 605.285 37.146C605.681 37.566 606.359 37.776 607.319 37.776C607.835 37.776 608.375 37.728 608.939 37.632C609.503 37.536 609.959 37.416 610.307 37.272ZM609.335 33.438C609.323 32.646 609.149 32.088 608.813 31.764C608.477 31.428 607.913 31.26 607.121 31.26C606.233 31.26 605.603 31.452 605.231 31.836C604.871 32.208 604.691 32.868 604.691 33.816H609.317C609.317 33.792 609.317 33.738 609.317 33.654C609.329 33.558 609.335 33.486 609.335 33.438ZM614.07 39H612.594V30.108H613.944L614.016 30.792H614.07C614.598 30.492 615.078 30.276 615.51 30.144C615.942 30 616.374 29.928 616.806 29.928C617.31 29.928 617.742 30.006 618.102 30.162C618.462 30.318 618.744 30.552 618.948 30.864H619.002C619.482 30.564 619.986 30.336 620.514 30.18C621.054 30.012 621.594 29.928 622.134 29.928C622.986 29.928 623.628 30.156 624.06 30.612C624.504 31.056 624.726 31.716 624.726 32.592V39H623.25V32.772C623.25 32.256 623.112 31.878 622.836 31.638C622.56 31.386 622.122 31.26 621.522 31.26C621.186 31.26 620.832 31.314 620.46 31.422C620.088 31.518 619.716 31.662 619.344 31.854C619.368 31.974 619.38 32.094 619.38 32.214C619.392 32.334 619.398 32.46 619.398 32.592V39H617.922V32.772C617.922 32.256 617.784 31.878 617.508 31.638C617.232 31.386 616.794 31.26 616.194 31.26C615.894 31.26 615.576 31.314 615.24 31.422C614.904 31.518 614.514 31.686 614.07 31.926V39ZM628.142 39H626.666V37.506H628.142V39ZM634.535 27.714V39H633.005V27.714H634.535ZM638.486 39H637.01V30.108H638.288L638.36 30.972H638.414C638.894 30.612 639.392 30.348 639.908 30.18C640.436 30.012 641.024 29.928 641.672 29.928C642.656 29.928 643.4 30.174 643.904 30.666C644.42 31.158 644.678 31.884 644.678 32.844V39H643.202V33.024C643.202 32.424 643.034 31.98 642.698 31.692C642.362 31.404 641.846 31.26 641.15 31.26C640.718 31.26 640.274 31.332 639.818 31.476C639.374 31.608 638.93 31.806 638.486 32.07V39ZM329.981 61H328.505V49.03H329.981V52.828C330.521 52.528 331.055 52.306 331.583 52.162C332.123 52.006 332.657 51.928 333.185 51.928C334.169 51.928 334.907 52.174 335.399 52.666C335.903 53.158 336.155 53.884 336.155 54.844V61H334.679V55.024C334.679 54.412 334.517 53.968 334.193 53.692C333.881 53.404 333.389 53.26 332.717 53.26C332.273 53.26 331.811 53.32 331.331 53.44C330.863 53.56 330.413 53.728 329.981 53.944V61ZM340.471 61.144C339.559 61.144 338.887 60.928 338.455 60.496C338.035 60.052 337.825 59.356 337.825 58.408C337.825 57.448 338.083 56.77 338.599 56.374C339.115 55.966 339.991 55.762 341.227 55.762C341.635 55.762 342.037 55.78 342.433 55.816C342.829 55.852 343.201 55.906 343.549 55.978V55.114C343.549 54.454 343.381 53.98 343.045 53.692C342.709 53.404 342.169 53.26 341.425 53.26C340.873 53.26 340.387 53.284 339.967 53.332C339.547 53.368 339.127 53.434 338.707 53.53V52.252C339.187 52.132 339.673 52.048 340.165 52C340.669 51.952 341.239 51.928 341.875 51.928C342.943 51.928 343.735 52.18 344.251 52.684C344.767 53.176 345.025 53.944 345.025 54.988V61H343.675L343.603 60.172H343.567C343.207 60.46 342.739 60.694 342.163 60.874C341.599 61.054 341.035 61.144 340.471 61.144ZM341.389 56.968C340.573 56.968 340.003 57.07 339.679 57.274C339.367 57.466 339.211 57.814 339.211 58.318C339.211 58.846 339.343 59.23 339.607 59.47C339.871 59.698 340.303 59.812 340.903 59.812C341.371 59.812 341.851 59.74 342.343 59.596C342.835 59.452 343.237 59.272 343.549 59.056V57.148C343.153 57.088 342.781 57.046 342.433 57.022C342.097 56.986 341.749 56.968 341.389 56.968ZM353.542 59.236V60.478C353.242 60.67 352.792 60.832 352.192 60.964C351.604 61.084 350.986 61.144 350.338 61.144C349.078 61.144 348.19 60.802 347.674 60.118C347.17 59.434 346.918 58.24 346.918 56.536C346.918 54.868 347.248 53.686 347.908 52.99C348.568 52.282 349.69 51.928 351.274 51.928C351.622 51.928 351.934 51.94 352.21 51.964C352.498 51.976 352.864 52.012 353.308 52.072V53.386C352.864 53.326 352.498 53.29 352.21 53.278C351.934 53.266 351.622 53.26 351.274 53.26C350.146 53.26 349.384 53.494 348.988 53.962C348.592 54.418 348.394 55.276 348.394 56.536C348.394 57.796 348.55 58.654 348.862 59.11C349.174 59.554 349.774 59.776 350.662 59.776C351.154 59.776 351.664 59.728 352.192 59.632C352.72 59.524 353.17 59.392 353.542 59.236ZM359.794 61H358.318V49.03H359.794V52.828C360.334 52.528 360.868 52.306 361.396 52.162C361.936 52.006 362.47 51.928 362.998 51.928C363.982 51.928 364.72 52.174 365.212 52.666C365.716 53.158 365.968 53.884 365.968 54.844V61H364.492V55.024C364.492 54.412 364.33 53.968 364.006 53.692C363.694 53.404 363.202 53.26 362.53 53.26C362.086 53.26 361.624 53.32 361.144 53.44C360.676 53.56 360.226 53.728 359.794 53.944V61ZM370.283 61.144C369.371 61.144 368.699 60.928 368.267 60.496C367.847 60.052 367.637 59.356 367.637 58.408C367.637 57.448 367.895 56.77 368.411 56.374C368.927 55.966 369.803 55.762 371.039 55.762C371.447 55.762 371.849 55.78 372.245 55.816C372.641 55.852 373.013 55.906 373.361 55.978V55.114C373.361 54.454 373.193 53.98 372.857 53.692C372.521 53.404 371.981 53.26 371.237 53.26C370.685 53.26 370.199 53.284 369.779 53.332C369.359 53.368 368.939 53.434 368.519 53.53V52.252C368.999 52.132 369.485 52.048 369.977 52C370.481 51.952 371.051 51.928 371.687 51.928C372.755 51.928 373.547 52.18 374.063 52.684C374.579 53.176 374.837 53.944 374.837 54.988V61H373.487L373.415 60.172H373.379C373.019 60.46 372.551 60.694 371.975 60.874C371.411 61.054 370.847 61.144 370.283 61.144ZM371.201 56.968C370.385 56.968 369.815 57.07 369.491 57.274C369.179 57.466 369.023 57.814 369.023 58.318C369.023 58.846 369.155 59.23 369.419 59.47C369.683 59.698 370.115 59.812 370.715 59.812C371.183 59.812 371.663 59.74 372.155 59.596C372.647 59.452 373.049 59.272 373.361 59.056V57.148C372.965 57.088 372.593 57.046 372.245 57.022C371.909 56.986 371.561 56.968 371.201 56.968ZM381.536 51.928C382.748 51.928 383.612 52.288 384.128 53.008C384.656 53.716 384.92 54.88 384.92 56.5C384.92 58.156 384.596 59.344 383.948 60.064C383.3 60.784 382.214 61.144 380.69 61.144C380.006 61.144 379.364 61.102 378.764 61.018C378.164 60.946 377.618 60.832 377.126 60.676V49.03H378.602V52.72C379.022 52.468 379.484 52.276 379.988 52.144C380.492 52 381.008 51.928 381.536 51.928ZM383.444 56.5C383.444 55.288 383.27 54.448 382.922 53.98C382.586 53.5 381.95 53.26 381.014 53.26C380.582 53.26 380.156 53.32 379.736 53.44C379.316 53.548 378.938 53.704 378.602 53.908V59.542C378.866 59.614 379.166 59.674 379.502 59.722C379.838 59.758 380.204 59.776 380.6 59.776C381.716 59.776 382.466 59.542 382.85 59.074C383.246 58.606 383.444 57.748 383.444 56.5ZM388.395 50.56H386.811V49.03H388.395V50.56ZM388.341 61H386.865V52.108H388.341V61ZM395.934 59.614V60.856C395.742 60.94 395.478 61.006 395.142 61.054C394.818 61.114 394.506 61.144 394.206 61.144C393.126 61.144 392.352 60.904 391.884 60.424C391.428 59.944 391.2 59.116 391.2 57.94V53.368H389.868V52.108H391.218L391.452 49.948H392.676V52.108H395.844V53.368H392.676V57.886C392.676 58.618 392.808 59.116 393.072 59.38C393.348 59.644 393.828 59.776 394.512 59.776C394.728 59.776 394.974 59.758 395.25 59.722C395.538 59.686 395.766 59.65 395.934 59.614ZM399.41 61.144C398.498 61.144 397.826 60.928 397.394 60.496C396.974 60.052 396.764 59.356 396.764 58.408C396.764 57.448 397.022 56.77 397.538 56.374C398.054 55.966 398.93 55.762 400.166 55.762C400.574 55.762 400.976 55.78 401.372 55.816C401.768 55.852 402.14 55.906 402.488 55.978V55.114C402.488 54.454 402.32 53.98 401.984 53.692C401.648 53.404 401.108 53.26 400.364 53.26C399.812 53.26 399.326 53.284 398.906 53.332C398.486 53.368 398.066 53.434 397.646 53.53V52.252C398.126 52.132 398.612 52.048 399.104 52C399.608 51.952 400.178 51.928 400.814 51.928C401.882 51.928 402.674 52.18 403.19 52.684C403.706 53.176 403.964 53.944 403.964 54.988V61H402.614L402.542 60.172H402.506C402.146 60.46 401.678 60.694 401.102 60.874C400.538 61.054 399.974 61.144 399.41 61.144ZM400.328 56.968C399.512 56.968 398.942 57.07 398.618 57.274C398.306 57.466 398.15 57.814 398.15 58.318C398.15 58.846 398.282 59.23 398.546 59.47C398.81 59.698 399.242 59.812 399.842 59.812C400.31 59.812 400.79 59.74 401.282 59.596C401.774 59.452 402.176 59.272 402.488 59.056V57.148C402.092 57.088 401.72 57.046 401.372 57.022C401.036 56.986 400.688 56.968 400.328 56.968ZM409.331 53.26C408.563 53.26 408.029 53.35 407.729 53.53C407.441 53.71 407.297 54.076 407.297 54.628C407.297 54.916 407.363 55.138 407.495 55.294C407.639 55.438 407.861 55.534 408.161 55.582L410.447 55.924C411.167 56.032 411.671 56.26 411.959 56.608C412.247 56.944 412.391 57.478 412.391 58.21C412.391 59.242 412.145 59.992 411.653 60.46C411.161 60.916 410.345 61.144 409.205 61.144C408.521 61.144 407.885 61.108 407.297 61.036C406.709 60.964 406.223 60.868 405.839 60.748V59.362C406.223 59.482 406.691 59.584 407.243 59.668C407.807 59.74 408.383 59.776 408.971 59.776C409.715 59.776 410.225 59.668 410.501 59.452C410.777 59.236 410.915 58.852 410.915 58.3C410.915 57.952 410.837 57.7 410.681 57.544C410.525 57.376 410.243 57.262 409.835 57.202L407.549 56.86C406.973 56.776 406.541 56.554 406.253 56.194C405.977 55.834 405.833 55.312 405.821 54.628C405.821 53.692 406.097 53.008 406.649 52.576C407.213 52.144 408.077 51.928 409.241 51.928C409.721 51.928 410.153 51.94 410.537 51.964C410.933 51.988 411.347 52.036 411.779 52.108V53.422C411.467 53.374 411.101 53.338 410.681 53.314C410.261 53.278 409.811 53.26 409.331 53.26ZM417.241 53.26C416.473 53.26 415.939 53.35 415.639 53.53C415.351 53.71 415.207 54.076 415.207 54.628C415.207 54.916 415.273 55.138 415.405 55.294C415.549 55.438 415.771 55.534 416.071 55.582L418.357 55.924C419.077 56.032 419.581 56.26 419.869 56.608C420.157 56.944 420.301 57.478 420.301 58.21C420.301 59.242 420.055 59.992 419.563 60.46C419.071 60.916 418.255 61.144 417.115 61.144C416.431 61.144 415.795 61.108 415.207 61.036C414.619 60.964 414.133 60.868 413.749 60.748V59.362C414.133 59.482 414.601 59.584 415.153 59.668C415.717 59.74 416.293 59.776 416.881 59.776C417.625 59.776 418.135 59.668 418.411 59.452C418.687 59.236 418.825 58.852 418.825 58.3C418.825 57.952 418.747 57.7 418.591 57.544C418.435 57.376 418.153 57.262 417.745 57.202L415.459 56.86C414.883 56.776 414.451 56.554 414.163 56.194C413.887 55.834 413.743 55.312 413.731 54.628C413.731 53.692 414.007 53.008 414.559 52.576C415.123 52.144 415.987 51.928 417.151 51.928C417.631 51.928 418.063 51.94 418.447 51.964C418.843 51.988 419.257 52.036 419.689 52.108V53.422C419.377 53.374 419.011 53.338 418.591 53.314C418.171 53.278 417.721 53.26 417.241 53.26ZM428.769 59.272V60.514C428.457 60.682 427.995 60.832 427.383 60.964C426.783 61.084 426.171 61.144 425.547 61.144C424.155 61.144 423.159 60.784 422.559 60.064C421.959 59.344 421.659 58.156 421.659 56.5C421.659 54.904 421.971 53.746 422.595 53.026C423.219 52.294 424.215 51.928 425.583 51.928C426.855 51.928 427.767 52.216 428.319 52.792C428.871 53.356 429.147 54.304 429.147 55.636C429.147 55.876 429.141 56.098 429.129 56.302C429.117 56.506 429.093 56.752 429.057 57.04H423.153C423.165 58.024 423.363 58.726 423.747 59.146C424.143 59.566 424.821 59.776 425.781 59.776C426.297 59.776 426.837 59.728 427.401 59.632C427.965 59.536 428.421 59.416 428.769 59.272ZM427.797 55.438C427.785 54.646 427.611 54.088 427.275 53.764C426.939 53.428 426.375 53.26 425.583 53.26C424.695 53.26 424.065 53.452 423.693 53.836C423.333 54.208 423.153 54.868 423.153 55.816H427.779C427.779 55.792 427.779 55.738 427.779 55.654C427.791 55.558 427.797 55.486 427.797 55.438ZM435.608 63.736H434.132V52.108H435.41L435.5 52.9H435.554C435.926 52.588 436.37 52.348 436.886 52.18C437.402 52.012 437.954 51.928 438.542 51.928C439.754 51.928 440.618 52.288 441.134 53.008C441.662 53.728 441.926 54.904 441.926 56.536C441.926 58.168 441.608 59.344 440.972 60.064C440.336 60.784 439.274 61.144 437.786 61.144C437.342 61.144 436.934 61.114 436.562 61.054C436.202 60.994 435.884 60.904 435.608 60.784V63.736ZM440.45 56.536C440.45 55.312 440.276 54.46 439.928 53.98C439.592 53.5 438.956 53.26 438.02 53.26C437.576 53.26 437.15 53.326 436.742 53.458C436.346 53.578 435.968 53.758 435.608 53.998V59.416C435.908 59.536 436.214 59.626 436.526 59.686C436.85 59.746 437.21 59.776 437.606 59.776C438.722 59.776 439.472 59.548 439.856 59.092C440.252 58.624 440.45 57.772 440.45 56.536Z" fill="white"/>
</svg>
