<svg width="35" height="35" viewBox="0 0 35 35" fill="none" xmlns="http://www.w3.org/2000/svg">
<path d="M11.6666 16.0417V23.3333M11.6666 11.6667V11.6812M17.5 23.3333V16.0417M23.3333 23.3333V18.9583C23.3333 18.1848 23.026 17.4429 22.479 16.8959C21.9321 16.349 21.1902 16.0417 20.4166 16.0417C19.6431 16.0417 18.9012 16.349 18.3543 16.8959C17.8073 17.4429 17.5 18.1848 17.5 18.9583M8.74998 5.83333H26.25C27.8608 5.83333 29.1666 7.13916 29.1666 8.74999V26.25C29.1666 27.8608 27.8608 29.1667 26.25 29.1667H8.74998C7.13915 29.1667 5.83331 27.8608 5.83331 26.25V8.74999C5.83331 7.13916 7.13915 5.83333 8.74998 5.83333Z" stroke="#DC944C" stroke-width="2" stroke-linecap="round" stroke-linejoin="round"/>
</svg>
