<svg width="75" height="75" viewBox="0 0 75 75" fill="none" xmlns="http://www.w3.org/2000/svg">
<path d="M19.7063 27.2219C11.575 29.4813 6.25 33.2407 6.25 37.5C6.25 44.4063 20.2406 50 37.5 50C39.9156 50 42.2688 49.8906 44.525 49.6813M55.2875 47.7781C63.4219 45.5219 68.75 41.7594 68.75 37.5C68.75 30.5938 54.7594 25 37.5 25C35.0844 25 32.7312 25.1094 30.4688 25.3188M19.7031 47.7719C17.5906 55.9438 18.1875 62.4375 21.875 64.5625C27.8531 68.0156 39.6969 58.6969 48.325 43.75C49.5344 41.6563 50.6156 39.5656 51.5625 37.5063M55.2938 27.2375C57.4094 19.0625 56.8156 12.5625 53.125 10.4375C47.1469 6.9844 35.3031 16.3032 26.675 31.25C25.4656 33.3438 24.3844 35.4375 23.4344 37.4969M37.5 16.95C31.4844 11.0375 25.5625 8.30628 21.875 10.4375C15.8969 13.8875 18.0438 28.8032 26.675 43.75C27.8813 45.8438 29.1531 47.825 30.4625 49.675M37.4938 58.0438C43.5125 63.9594 49.4344 66.6938 53.125 64.5625C59.1031 61.1125 56.9562 46.1969 48.325 31.25C47.1536 29.2173 45.8898 27.2391 44.5375 25.3219M40.2063 39.0625C39.3434 40.5572 37.4322 41.0693 35.9375 40.2064C34.4428 39.3434 33.9307 37.4322 34.7937 35.9375C35.6566 34.4429 37.5678 33.9308 39.0625 34.7937C40.5572 35.6566 41.0693 37.5679 40.2063 39.0625Z" stroke="#DC944C" stroke-width="2" stroke-linecap="round" stroke-linejoin="round"/>
</svg>
